<?xml version="1.0" encoding="UTF-8" standalone="no"?>
<svg
   xmlns:dc="http://purl.org/dc/elements/1.1/"
   xmlns:cc="http://creativecommons.org/ns#"
   xmlns:rdf="http://www.w3.org/1999/02/22-rdf-syntax-ns#"
   xmlns:svg="http://www.w3.org/2000/svg"
   xmlns="http://www.w3.org/2000/svg"
   xmlns:sodipodi="http://sodipodi.sourceforge.net/DTD/sodipodi-0.dtd"
   xmlns:inkscape="http://www.inkscape.org/namespaces/inkscape"
   width="1200"
   height="1438"
   viewBox="0 0 25074.97 30048.448"
   version="1.1"
   id="svg4"
   sodipodi:docname="webriders_logo_raw.svg"
   inkscape:version="1.0.2-2 (e86c870879, 2021-01-15)"
   style="fill-rule:evenodd;image-rendering:optimizeQuality;shape-rendering:geometricPrecision;text-rendering:geometricPrecision">
  <metadata
     id="metadata10">
    <rdf:RDF>
      <cc:Work
         rdf:about="">
        <dc:format>image/svg+xml</dc:format>
        <dc:type
           rdf:resource="http://purl.org/dc/dcmitype/StillImage" />
        <dc:title />
      </cc:Work>
    </rdf:RDF>
  </metadata>
  <defs
     id="defs8">
    <filter
       style="color-interpolation-filters:sRGB;"
       inkscape:label="Drop Shadow"
       id="filter4877">
      <feFlood
         flood-opacity="0.498039"
         flood-color="rgb(0,0,0)"
         result="flood"
         id="feFlood4867" />
      <feComposite
         in="flood"
         in2="SourceGraphic"
         operator="in"
         result="composite1"
         id="feComposite4869" />
      <feGaussianBlur
         in="composite1"
         stdDeviation="91"
         result="blur"
         id="feGaussianBlur4871" />
      <feOffset
         dx="6"
         dy="6"
         result="offset"
         id="feOffset4873" />
      <feComposite
         in="SourceGraphic"
         in2="offset"
         operator="over"
         result="fbSourceGraphic"
         id="feComposite4875" />
      <feColorMatrix
         result="fbSourceGraphicAlpha"
         in="fbSourceGraphic"
         values="0 0 0 -1 0 0 0 0 -1 0 0 0 0 -1 0 0 0 0 1 0"
         id="feColorMatrix4879" />
      <feFlood
         id="feFlood4881"
         flood-opacity="0.498039"
         flood-color="rgb(0,0,0)"
         result="flood"
         in="fbSourceGraphic" />
      <feComposite
         in2="fbSourceGraphic"
         id="feComposite4883"
         in="flood"
         operator="in"
         result="composite1" />
      <feGaussianBlur
         id="feGaussianBlur4885"
         in="composite1"
         stdDeviation="91"
         result="blur" />
      <feOffset
         id="feOffset4887"
         dx="6"
         dy="6"
         result="offset" />
      <feComposite
         in2="offset"
         id="feComposite4889"
         in="fbSourceGraphic"
         operator="over"
         result="fbSourceGraphic" />
      <feColorMatrix
         result="fbSourceGraphicAlpha"
         in="fbSourceGraphic"
         values="0 0 0 -1 0 0 0 0 -1 0 0 0 0 -1 0 0 0 0 1 0"
         id="feColorMatrix4891" />
      <feFlood
         id="feFlood4893"
         flood-opacity="0.498039"
         flood-color="rgb(0,0,0)"
         result="flood"
         in="fbSourceGraphic" />
      <feComposite
         in2="fbSourceGraphic"
         id="feComposite4895"
         in="flood"
         operator="in"
         result="composite1" />
      <feGaussianBlur
         id="feGaussianBlur4897"
         in="composite1"
         stdDeviation="91"
         result="blur" />
      <feOffset
         id="feOffset4899"
         dx="6"
         dy="6"
         result="offset" />
      <feComposite
         in2="offset"
         id="feComposite4901"
         in="fbSourceGraphic"
         operator="over"
         result="fbSourceGraphic" />
      <feColorMatrix
         result="fbSourceGraphicAlpha"
         in="fbSourceGraphic"
         values="0 0 0 -1 0 0 0 0 -1 0 0 0 0 -1 0 0 0 0 1 0"
         id="feColorMatrix4987" />
      <feFlood
         id="feFlood4989"
         flood-opacity="0.498039"
         flood-color="rgb(0,0,0)"
         result="flood"
         in="fbSourceGraphic" />
      <feComposite
         in2="fbSourceGraphic"
         id="feComposite4991"
         in="flood"
         operator="in"
         result="composite1" />
      <feGaussianBlur
         id="feGaussianBlur4993"
         in="composite1"
         stdDeviation="170.312"
         result="blur" />
      <feOffset
         id="feOffset4995"
         dx="26.5"
         dy="44"
         result="offset" />
      <feComposite
         in2="offset"
         id="feComposite4997"
         in="fbSourceGraphic"
         operator="over"
         result="fbSourceGraphic" />
      <feColorMatrix
         result="fbSourceGraphicAlpha"
         in="fbSourceGraphic"
         values="0 0 0 -1 0 0 0 0 -1 0 0 0 0 -1 0 0 0 0 1 0"
         id="feColorMatrix4999" />
      <feFlood
         id="feFlood5001"
         flood-opacity="0.498039"
         flood-color="rgb(0,0,0)"
         result="flood"
         in="fbSourceGraphic" />
      <feComposite
         in2="fbSourceGraphic"
         id="feComposite5003"
         in="flood"
         operator="in"
         result="composite1" />
      <feGaussianBlur
         id="feGaussianBlur5005"
         in="composite1"
         stdDeviation="170.3"
         result="blur" />
      <feOffset
         id="feOffset5007"
         dx="26.5"
         dy="44"
         result="offset" />
      <feComposite
         in2="offset"
         id="feComposite5009"
         in="fbSourceGraphic"
         operator="over"
         result="fbSourceGraphic" />
      <feColorMatrix
         result="fbSourceGraphicAlpha"
         in="fbSourceGraphic"
         values="0 0 0 -1 0 0 0 0 -1 0 0 0 0 -1 0 0 0 0 1 0"
         id="feColorMatrix5011" />
      <feFlood
         id="feFlood5013"
         flood-opacity="0.498039"
         flood-color="rgb(0,0,0)"
         result="flood"
         in="fbSourceGraphic" />
      <feComposite
         in2="fbSourceGraphic"
         id="feComposite5015"
         in="flood"
         operator="in"
         result="composite1" />
      <feGaussianBlur
         id="feGaussianBlur5017"
         in="composite1"
         stdDeviation="170.3"
         result="blur" />
      <feOffset
         id="feOffset5019"
         dx="26.5"
         dy="44"
         result="offset" />
      <feComposite
         in2="offset"
         id="feComposite5021"
         in="fbSourceGraphic"
         operator="over"
         result="fbSourceGraphic" />
      <feColorMatrix
         result="fbSourceGraphicAlpha"
         in="fbSourceGraphic"
         values="0 0 0 -1 0 0 0 0 -1 0 0 0 0 -1 0 0 0 0 1 0"
         id="feColorMatrix5023" />
      <feFlood
         id="feFlood5025"
         flood-opacity="0.498039"
         flood-color="rgb(0,0,0)"
         result="flood"
         in="fbSourceGraphic" />
      <feComposite
         in2="fbSourceGraphic"
         id="feComposite5027"
         in="flood"
         operator="in"
         result="composite1" />
      <feGaussianBlur
         id="feGaussianBlur5029"
         in="composite1"
         stdDeviation="170.3"
         result="blur" />
      <feOffset
         id="feOffset5031"
         dx="26.5"
         dy="44"
         result="offset" />
      <feComposite
         in2="offset"
         id="feComposite5033"
         in="fbSourceGraphic"
         operator="over"
         result="fbSourceGraphic" />
      <feColorMatrix
         result="fbSourceGraphicAlpha"
         in="fbSourceGraphic"
         values="0 0 0 -1 0 0 0 0 -1 0 0 0 0 -1 0 0 0 0 1 0"
         id="feColorMatrix5035" />
      <feFlood
         id="feFlood5037"
         flood-opacity="0.498039"
         flood-color="rgb(0,0,0)"
         result="flood"
         in="fbSourceGraphic" />
      <feComposite
         in2="fbSourceGraphic"
         id="feComposite5039"
         in="flood"
         operator="in"
         result="composite1" />
      <feGaussianBlur
         id="feGaussianBlur5041"
         in="composite1"
         stdDeviation="170.3"
         result="blur" />
      <feOffset
         id="feOffset5043"
         dx="26.5"
         dy="44"
         result="offset" />
      <feComposite
         in2="offset"
         id="feComposite5045"
         in="fbSourceGraphic"
         operator="over"
         result="composite2" />
    </filter>
    <filter
       style="color-interpolation-filters:sRGB;"
       inkscape:label="Drop Shadow"
       id="filter5057">
      <feFlood
         flood-opacity="0.498039"
         flood-color="rgb(0,0,0)"
         result="flood"
         id="feFlood5047" />
      <feComposite
         in="flood"
         in2="SourceGraphic"
         operator="in"
         result="composite1"
         id="feComposite5049" />
      <feGaussianBlur
         in="composite1"
         stdDeviation="170.3"
         result="blur"
         id="feGaussianBlur5051" />
      <feOffset
         dx="26.5"
         dy="44"
         result="offset"
         id="feOffset5053" />
      <feComposite
         in="SourceGraphic"
         in2="offset"
         operator="over"
         result="fbSourceGraphic"
         id="feComposite5055" />
      <feColorMatrix
         result="fbSourceGraphicAlpha"
         in="fbSourceGraphic"
         values="0 0 0 -1 0 0 0 0 -1 0 0 0 0 -1 0 0 0 0 1 0"
         id="feColorMatrix5059" />
      <feFlood
         id="feFlood5061"
         flood-opacity="0.498039"
         flood-color="rgb(0,0,0)"
         result="flood"
         in="fbSourceGraphic" />
      <feComposite
         in2="fbSourceGraphic"
         id="feComposite5063"
         in="flood"
         operator="in"
         result="composite1" />
      <feGaussianBlur
         id="feGaussianBlur5065"
         in="composite1"
         stdDeviation="170.3"
         result="blur" />
      <feOffset
         id="feOffset5067"
         dx="26.5"
         dy="44"
         result="offset" />
      <feComposite
         in2="offset"
         id="feComposite5069"
         in="fbSourceGraphic"
         operator="over"
         result="fbSourceGraphic" />
      <feColorMatrix
         result="fbSourceGraphicAlpha"
         in="fbSourceGraphic"
         values="0 0 0 -1 0 0 0 0 -1 0 0 0 0 -1 0 0 0 0 1 0"
         id="feColorMatrix5071" />
      <feFlood
         id="feFlood5073"
         flood-opacity="0.498039"
         flood-color="rgb(0,0,0)"
         result="flood"
         in="fbSourceGraphic" />
      <feComposite
         in2="fbSourceGraphic"
         id="feComposite5075"
         in="flood"
         operator="in"
         result="composite1" />
      <feGaussianBlur
         id="feGaussianBlur5077"
         in="composite1"
         stdDeviation="170.3"
         result="blur" />
      <feOffset
         id="feOffset5079"
         dx="26.5"
         dy="44"
         result="offset" />
      <feComposite
         in2="offset"
         id="feComposite5081"
         in="fbSourceGraphic"
         operator="over"
         result="fbSourceGraphic" />
      <feColorMatrix
         result="fbSourceGraphicAlpha"
         in="fbSourceGraphic"
         values="0 0 0 -1 0 0 0 0 -1 0 0 0 0 -1 0 0 0 0 1 0"
         id="feColorMatrix5083" />
      <feFlood
         id="feFlood5085"
         flood-opacity="0.498039"
         flood-color="rgb(0,0,0)"
         result="flood"
         in="fbSourceGraphic" />
      <feComposite
         in2="fbSourceGraphic"
         id="feComposite5087"
         in="flood"
         operator="in"
         result="composite1" />
      <feGaussianBlur
         id="feGaussianBlur5089"
         in="composite1"
         stdDeviation="170.3"
         result="blur" />
      <feOffset
         id="feOffset5091"
         dx="26.5"
         dy="44"
         result="offset" />
      <feComposite
         in2="offset"
         id="feComposite5093"
         in="fbSourceGraphic"
         operator="over"
         result="composite2" />
    </filter>
  </defs>
  <sodipodi:namedview
     pagecolor="#ffffff"
     bordercolor="#666666"
     borderopacity="1"
     objecttolerance="10"
     gridtolerance="10"
     guidetolerance="10"
     inkscape:pageopacity="0"
     inkscape:pageshadow="2"
     inkscape:window-width="1920"
     inkscape:window-height="1001"
     id="namedview6"
     showgrid="false"
     inkscape:zoom="0.3337544"
     inkscape:cx="206.79916"
     inkscape:cy="483.88895"
     inkscape:window-x="-9"
     inkscape:window-y="-9"
     inkscape:window-maximized="1"
     inkscape:current-layer="svg4"
     inkscape:document-rotation="0" />
  <path
     d="m 12399.674,13519.572 c 322.922,0 586.043,470.429 757.471,701.657 247.174,326.908 406.642,506.309 598.003,861.125 h -2603.307 c 79.733,-302.989 1032.553,-1562.782 1247.833,-1562.782 z M 4071.4831,10916.265 c 127.574,1542.848 2192.6785,4911.599 3356.7914,6119.565 466.4426,486.377 669.7636,865.112 1120.2596,1168.1 -79.734,-299.001 -259.1348,-442.521 -438.5358,-709.631 -183.3877,-271.094 -330.8953,-494.349 -498.3361,-749.497 -350.8285,-522.256 -633.8835,-984.712 -936.8718,-1562.781 554.1497,147.507 976.7387,1040.525 2292.3457,1040.525 v -103.654 c -1144.1794,0 -2627.2274,-1502.981 -3229.2173,-2706.961 l -625.9101,-1459.128 c 398.6688,107.641 326.9084,167.441 542.1896,498.336 151.4941,235.215 267.1082,386.709 418.6022,621.924 1427.2344,2252.478 1068.4325,1897.663 4349.4765,1897.663 v 103.654 c -538.2029,0 -223.254,-15.947 -310.961,207.308 1128.232,263.121 3544.165,267.108 4684.358,0 -87.707,-235.215 215.281,-207.308 -310.962,-207.308 v -103.654 c 3472.406,0 2858.456,430.563 4768.079,-2519.587 215.281,-330.895 143.521,-394.682 542.19,-498.336 -107.641,227.241 -147.508,402.656 -275.081,661.79 -366.776,741.525 -753.485,1805.97 -1554.81,2399.987 -263.12,195.348 -291.027,271.094 -582.055,458.469 -302.989,195.348 -1016.605,641.857 -1439.195,641.857 v 103.653 c 1160.126,0 1666.436,-725.576 2292.346,-1144.179 -103.654,442.522 -1076.406,1917.597 -1395.341,2352.146 -207.308,283.055 -382.722,410.629 -478.403,769.431 231.227,-155.481 1180.06,-1231.886 1395.341,-1518.928 845.178,-1128.233 1044.512,-1279.727 1797.997,-2575.401 1156.139,-1985.371 889.031,-2264.439 1283.713,-3089.683 -167.44,43.853 -1734.209,1578.729 -4329.543,-43.854 -1072.419,-669.763 -1100.326,203.322 255.148,681.724 398.669,139.534 1251.82,390.695 1786.037,402.655 -422.59,629.897 -817.272,1012.619 -1104.314,1395.341 -151.494,199.335 -239.201,306.975 -354.815,478.403 -665.776,0 -1786.036,-31.894 -2284.373,-215.281 -382.721,-139.534 -849.163,-761.458 -1048.498,-1140.193 -1778.063,414.615 -924.912,390.695 -2603.308,0 -893.017,1335.54 -1168.0989,1355.474 -3332.8703,1355.474 -183.3876,-275.082 -510.2961,-641.857 -757.4708,-908.965 l -701.6571,-964.779 c 749.4973,-15.946 3005.9633,-645.843 2750.8153,-1196.006 -295.015,-629.897 -442.523,498.335 -3089.6838,865.111 -1076.4058,147.508 -1702.3159,-645.843 -1953.4772,-813.284 z m 12183.3189,7287.665 31.894,31.894 c -3.987,-3.987 -19.934,-39.867 -31.894,-31.894 z m -7706.2679,103.654 c 11.96,11.96 31.893,-43.854 31.893,-31.893 0,3.986 11.96,-11.961 11.96,-11.961 z M 14692.02,2584.0862 c 621.924,-143.5208 1463.115,-522.2566 2292.346,-522.2566 v 103.6541 c -713.617,0 -3125.564,1199.9933 -3125.564,2184.705 275.082,131.561 111.628,95.681 522.256,103.6542 -135.547,586.0431 -506.309,1259.7938 -522.256,1873.7434 322.922,-215.2806 1255.807,-1479.0611 1977.398,-1981.3842 2499.653,-1738.1963 3847.154,-789.3639 4895.653,-701.6567 -1080.393,-1662.4491 -1227.9,-2316.2661 -3229.218,-2316.2661 -637.87,0 -1136.205,203.3211 -1562.782,414.6152 -366.775,183.3882 -1028.565,534.2165 -1247.833,833.2178 z M 4486.0986,3624.6116 c 904.9783,-75.7473 2228.5587,-1016.6058 4564.7585,745.5108 1016.6049,765.4446 1136.2049,1112.2859 1694.3419,1742.1833 139.533,159.4671 67.774,135.5466 299.001,219.2674 -55.813,-673.7508 -378.735,-1259.794 -522.256,-1873.7437 1857.797,-39.8665 -1646.5019,-2292.3457 -2603.3068,-2292.3457 v -103.6541 c 474.4157,0 1857.7969,362.7888 2184.7048,522.2566 C 9888.0611,1994.0561 8078.1047,1336.2525 7396.381,1336.2525 6072.8005,1495.7204 5167.8223,1926.2827 4482.112,3628.5982 Z M 20105.942,7268.444 c 446.51,103.655 550.164,314.949 936.872,414.616 -211.294,-318.935 -418.602,-414.616 -729.564,-625.9095 183.389,-271.0949 382.723,-438.5364 414.616,-833.2177 -175.414,127.574 -721.591,1267.7662 -1518.928,167.4405 -203.321,-279.0676 -287.042,-386.7087 -534.216,-609.9637 -426.576,-390.6955 -1016.605,-490.3623 -1797.997,-490.3623 v 414.6151 c 590.03,0 1016.606,-19.9329 1502.981,374.7494 1239.861,1004.6451 259.135,1395.3402 -1502.981,1395.3402 v 522.257 c 1977.398,0 1718.263,-522.257 2706.962,-522.257 781.39,0 1100.325,418.603 1562.781,729.565 -115.614,-434.55 -350.828,-478.403 -801.325,-761.459 l -243.187,-175.414 z M 16980.379,5912.9712 c -877.072,0 -1227.9,31.8931 -1873.743,522.2554 -115.614,-83.7198 -318.935,-83.7198 578.069,-462.4551 334.881,-139.5342 530.23,-187.3751 877.071,-267.1091 v -310.9607 c -2599.32,59.8003 -3340.844,2499.6533 0,2499.6533 v -414.616 c -450.494,-11.96 -980.725,-207.308 -1355.474,-207.308 v -103.654 c 609.964,0 2316.267,578.07 3643.834,-310.961 -346.842,-657.8037 -1084.38,-936.8722 -1873.744,-936.8722 z M 3756.5347,8205.317 c 861.1247,-578.071 697.6704,-729.565 1770.0895,-729.565 613.95,0 562.1231,522.257 2499.6535,522.257 v -522.257 c -450.4957,0 -777.4041,-55.813 -1227.8999,-127.574 -1893.6769,-283.054 -346.842,-1642.5156 1227.8999,-1642.5156 v -414.6151 c -2539.5203,0 -2021.2509,1562.7811 -3125.5635,1562.7811 -366.7753,0 -562.123,-530.2288 -833.2178,-729.5633 123.5873,526.243 279.0682,578.0697 522.2561,936.8722 -310.9617,207.3067 -514.2827,306.9737 -729.5639,625.9097 251.1613,-67.774 283.0548,-95.681 554.1496,-279.068 183.3877,-123.588 79.7338,-51.827 175.4143,-135.548 231.2279,167.442 155.4809,19.934 -418.6022,414.616 -263.1214,179.401 -322.9218,187.374 -414.6156,522.256 z M 6052.867,6821.9354 c 71.7605,207.3079 1881.7169,582.0566 2619.2541,470.4296 215.282,-31.893 920.925,-127.574 1016.606,-127.574 v 103.653 c -374.749,0 -904.979,199.335 -1355.4745,207.308 v 414.616 c 697.6705,0 1642.5155,-215.281 2104.9704,-705.643 l 187.375,-231.2289 c -143.521,-609.9628 -259.134,-813.2841 -769.4309,-1108.2995 -291.028,-167.4405 -1116.272,-446.509 -1522.9145,-454.4825 v 310.9615 c 434.5485,99.6677 1112.2865,103.6545 1347.5005,633.8833 -562.123,-362.7874 -825.244,-422.5877 -1762.1159,-422.5877 -1168.0996,0 -1941.5172,697.6695 -1865.7702,904.9774 z m 3324.8981,4405.2906 c 0,442.522 31.893,522.256 310.962,729.564 -179.401,-777.405 -203.322,-793.351 442.5219,-1431.222 267.108,-263.12 418.602,-546.176 805.31,-649.829 0,1283.713 -665.776,2706.961 1666.436,2706.961 1977.398,0 1355.475,-1985.37 1355.475,-2706.961 346.842,91.693 1355.474,1072.419 1355.474,1459.127 0,390.696 -67.774,195.348 -103.655,625.911 1028.566,-753.485 -566.109,-1957.464 -1040.525,-3017.924 -207.308,-458.469 -306.975,-777.404 -422.589,-1347.5 -255.148,-1259.7941 147.507,-1239.8604 -302.988,-1570.7547 0,789.3636 -103.655,1132.2187 -103.655,1873.7437 0,1431.22 207.308,2559.453 207.308,3958.781 -761.457,510.296 -2356.132,482.389 -2272.412,-494.349 3.987,-55.814 119.6,-633.884 151.494,-793.352 l 151.495,-2671.08 c -11.961,-574.084 -107.641,-570.097 -107.641,-1869.757 -295.015,219.2673 -211.294,83.7207 -211.294,621.9231 -3.988,1327.5679 -446.509,2360.1189 -1215.94,3364.7649 -239.2019,310.962 -653.8169,753.484 -653.8169,1219.926 z m 2395.9989,6350.794 c 0,817.272 -99.667,725.578 -187.374,1267.768 -75.747,474.415 147.507,2631.213 605.976,3312.937 h 522.257 c 291.027,-430.562 310.961,-673.751 406.641,-1259.794 322.923,-2033.211 211.296,-1403.314 -15.946,-2986.029 -95.68,-665.777 306.976,-653.817 446.509,-1168.1 h -2184.705 c 99.668,378.736 414.616,578.07 414.616,833.218 z m 2081.051,-4999.307 c 514.283,-119.6 701.657,-27.907 833.218,-522.256 -219.267,-183.388 -526.242,-51.827 -669.763,59.8 -243.189,183.388 -151.495,-3.986 -163.455,462.456 z m -2810.615,0 c -43.853,-510.296 -291.028,-613.949 -833.217,-625.91 47.84,594.017 299.001,502.323 833.217,625.91 z"
     id="path2"
     style="fill:#f9f9f9;stroke-width:3.98668838;filter:url(#filter4877)"
     inkscape:connector-curvature="0" />
</svg>
